0
SECTION
2
HEADER
9
$ACADVER
1
AC1009
9
$INSUNITS
70
5
9
$EXTMIN
10
-20.0000
20
-470.0000
30
0.0
9
$EXTMAX
10
1271.0000
20
512.0000
30
0.0
0
ENDSEC
0
SECTION
2
TABLES
0
TABLE
2
LTYPE
70
1
0
LTYPE
2
CONTINUOUS
70
0
3
Solid line
72
65
73
0
40
0.0
0
ENDTAB
0
TABLE
2
LAYER
70
16
0
LAYER
2
A-WALL
70
0
62
7
6
CONTINUOUS
0
LAYER
2
A-WALL-PATT
70
0
62
8
6
CONTINUOUS
0
LAYER
2
A-DOOR
70
0
62
30
6
CONTINUOUS
0
LAYER
2
A-GLAZ
70
0
62
4
6
CONTINUOUS
0
LAYER
2
A-AREA-IDEN
70
0
62
253
6
CONTINUOUS
0
LAYER
2
A-ANNO-NOTE
70
0
62
8
6
CONTINUOUS
0
LAYER
2
E-POWR
70
0
62
30
6
CONTINUOUS
0
LAYER
2
E-COMM
70
0
62
4
6
CONTINUOUS
0
LAYER
2
E-LITE
70
0
62
3
6
CONTINUOUS
0
LAYER
2
M-HVAC
70
0
62
6
6
CONTINUOUS
0
LAYER
2
P-HTNG
70
0
62
6
6
CONTINUOUS
0
LAYER
2
P-SANR
70
0
62
5
6
CONTINUOUS
0
LAYER
2
A-WALL-FNSH
70
0
62
34
6
CONTINUOUS
0
LAYER
2
A-FURN
70
0
62
8
6
CONTINUOUS
0
LAYER
2
A-FLOR-CASE
70
0
62
42
6
CONTINUOUS
0
LAYER
2
A-FLOR-EQPM
70
0
62
42
6
CONTINUOUS
0
ENDTAB
0
ENDSEC
0
SECTION
2
BLOCKS
0
BLOCK
8
E-POWR
2
POWER
70
0
10
0.0000
20
0.0000
30
0.0
3
POWER
1

0
CIRCLE
8
E-POWR
10
0.0000
20
0.0000
30
0.0
40
6.0000
0
LINE
8
E-POWR
10
-6.0000
20
0.0000
30
0.0
11
6.0000
21
0.0000
31
0.0
0
TEXT
8
E-POWR
10
0.0000
20
12.0000
30
0.0
40
6.0000
1
POWE
50
0.0000
72
1
73
2
11
0.0000
21
12.0000
31
0.0
0
ENDBLK
8
E-POWR
0
BLOCK
8
E-POWR
2
POWER-HIGH
70
0
10
0.0000
20
0.0000
30
0.0
3
POWER-HIGH
1

0
CIRCLE
8
E-POWR
10
0.0000
20
0.0000
30
0.0
40
6.0000
0
LINE
8
E-POWR
10
-6.0000
20
0.0000
30
0.0
11
6.0000
21
0.0000
31
0.0
0
TEXT
8
E-POWR
10
0.0000
20
12.0000
30
0.0
40
6.0000
1
P(
50
0.0000
72
1
73
2
11
0.0000
21
12.0000
31
0.0
0
ENDBLK
8
E-POWR
0
BLOCK
8
E-COMM
2
DATA
70
0
10
0.0000
20
0.0000
30
0.0
3
DATA
1

0
CIRCLE
8
E-COMM
10
0.0000
20
0.0000
30
0.0
40
6.0000
0
LINE
8
E-COMM
10
-6.0000
20
0.0000
30
0.0
11
6.0000
21
0.0000
31
0.0
0
TEXT
8
E-COMM
10
0.0000
20
12.0000
30
0.0
40
6.0000
1
RJ45
50
0.0000
72
1
73
2
11
0.0000
21
12.0000
31
0.0
0
ENDBLK
8
E-COMM
0
BLOCK
8
E-COMM
2
TV-POINT
70
0
10
0.0000
20
0.0000
30
0.0
3
TV-POINT
1

0
CIRCLE
8
E-COMM
10
0.0000
20
0.0000
30
0.0
40
6.0000
0
LINE
8
E-COMM
10
-6.0000
20
0.0000
30
0.0
11
6.0000
21
0.0000
31
0.0
0
TEXT
8
E-COMM
10
0.0000
20
12.0000
30
0.0
40
6.0000
1
TA
50
0.0000
72
1
73
2
11
0.0000
21
12.0000
31
0.0
0
ENDBLK
8
E-COMM
0
BLOCK
8
E-LITE
2
SWITCH
70
0
10
0.0000
20
0.0000
30
0.0
3
SWITCH
1

0
CIRCLE
8
E-LITE
10
0.0000
20
0.0000
30
0.0
40
6.0000
0
LINE
8
E-LITE
10
-6.0000
20
0.0000
30
0.0
11
6.0000
21
0.0000
31
0.0
0
TEXT
8
E-LITE
10
0.0000
20
12.0000
30
0.0
40
6.0000
1
SWIT
50
0.0000
72
1
73
2
11
0.0000
21
12.0000
31
0.0
0
ENDBLK
8
E-LITE
0
BLOCK
8
E-LITE
2
CEILING-LIGHT
70
0
10
0.0000
20
0.0000
30
0.0
3
CEILING-LIGHT
1

0
CIRCLE
8
E-LITE
10
0.0000
20
0.0000
30
0.0
40
6.0000
0
LINE
8
E-LITE
10
-6.0000
20
0.0000
30
0.0
11
6.0000
21
0.0000
31
0.0
0
TEXT
8
E-LITE
10
0.0000
20
12.0000
30
0.0
40
6.0000
1
CL
50
0.0000
72
1
73
2
11
0.0000
21
12.0000
31
0.0
0
ENDBLK
8
E-LITE
0
BLOCK
8
P-SANR
2
WATER
70
0
10
0.0000
20
0.0000
30
0.0
3
WATER
1

0
CIRCLE
8
P-SANR
10
0.0000
20
0.0000
30
0.0
40
6.0000
0
LINE
8
P-SANR
10
-6.0000
20
0.0000
30
0.0
11
6.0000
21
0.0000
31
0.0
0
TEXT
8
P-SANR
10
0.0000
20
12.0000
30
0.0
40
6.0000
1
WP
50
0.0000
72
1
73
2
11
0.0000
21
12.0000
31
0.0
0
ENDBLK
8
P-SANR
0
ENDSEC
0
SECTION
2
ENTITIES
0
SOLID
8
A-WALL-PATT
10
-20.0000
20
-20.0000
30
0.0
11
0.0000
21
-20.0000
31
0.0
12
-20.0000
22
0.0000
32
0.0
13
0.0000
23
0.0000
33
0.0
0
SOLID
8
A-WALL-PATT
10
-20.0000
20
0.0000
30
0.0
11
0.0000
21
0.0000
31
0.0
12
-20.0000
22
183.0000
32
0.0
13
0.0000
23
183.0000
33
0.0
0
SOLID
8
A-WALL-PATT
10
-20.0000
20
183.0000
30
0.0
11
0.0000
21
183.0000
31
0.0
12
-20.0000
22
311.0000
32
0.0
13
0.0000
23
311.0000
33
0.0
0
SOLID
8
A-WALL-PATT
10
-20.0000
20
311.0000
30
0.0
11
0.0000
21
311.0000
31
0.0
12
-20.0000
22
492.0000
32
0.0
13
0.0000
23
492.0000
33
0.0
0
SOLID
8
A-WALL-PATT
10
-20.0000
20
492.0000
30
0.0
11
0.0000
21
492.0000
31
0.0
12
-20.0000
22
512.0000
32
0.0
13
0.0000
23
512.0000
33
0.0
0
SOLID
8
A-WALL-PATT
10
0.0000
20
-20.0000
30
0.0
11
93.0000
21
-20.0000
31
0.0
12
0.0000
22
0.0000
32
0.0
13
93.0000
23
0.0000
33
0.0
0
SOLID
8
A-WALL-PATT
10
0.0000
20
492.0000
30
0.0
11
93.0000
21
492.0000
31
0.0
12
0.0000
22
512.0000
32
0.0
13
93.0000
23
512.0000
33
0.0
0
SOLID
8
A-WALL-PATT
10
93.0000
20
-20.0000
30
0.0
11
205.0000
21
-20.0000
31
0.0
12
93.0000
22
0.0000
32
0.0
13
205.0000
23
0.0000
33
0.0
0
SOLID
8
A-WALL-PATT
10
205.0000
20
-20.0000
30
0.0
11
327.0000
21
-20.0000
31
0.0
12
205.0000
22
0.0000
32
0.0
13
327.0000
23
0.0000
33
0.0
0
SOLID
8
A-WALL-PATT
10
205.0000
20
492.0000
30
0.0
11
327.0000
21
492.0000
31
0.0
12
205.0000
22
512.0000
32
0.0
13
327.0000
23
512.0000
33
0.0
0
SOLID
8
A-WALL-PATT
10
327.0000
20
-20.0000
30
0.0
11
376.0000
21
-20.0000
31
0.0
12
327.0000
22
0.0000
32
0.0
13
376.0000
23
0.0000
33
0.0
0
SOLID
8
A-WALL-PATT
10
376.0000
20
-355.0000
30
0.0
11
396.0000
21
-355.0000
31
0.0
12
376.0000
22
-335.0000
32
0.0
13
396.0000
23
-335.0000
33
0.0
0
SOLID
8
A-WALL-PATT
10
376.0000
20
-335.0000
30
0.0
11
396.0000
21
-335.0000
31
0.0
12
376.0000
22
-330.0000
32
0.0
13
396.0000
23
-330.0000
33
0.0
0
SOLID
8
A-WALL-PATT
10
376.0000
20
-330.0000
30
0.0
11
396.0000
21
-330.0000
31
0.0
12
376.0000
22
-255.0000
32
0.0
13
396.0000
23
-255.0000
33
0.0
0
SOLID
8
A-WALL-PATT
10
376.0000
20
-255.0000
30
0.0
11
396.0000
21
-255.0000
31
0.0
12
376.0000
22
-250.0000
32
0.0
13
396.0000
23
-250.0000
33
0.0
0
SOLID
8
A-WALL-PATT
10
376.0000
20
-250.0000
30
0.0
11
396.0000
21
-250.0000
31
0.0
12
376.0000
22
-230.0000
32
0.0
13
396.0000
23
-230.0000
33
0.0
0
SOLID
8
A-WALL-PATT
10
376.0000
20
-230.0000
30
0.0
11
396.0000
21
-230.0000
31
0.0
12
376.0000
22
-180.0000
32
0.0
13
396.0000
23
-180.0000
33
0.0
0
SOLID
8
A-WALL-PATT
10
376.0000
20
-180.0000
30
0.0
11
396.0000
21
-180.0000
31
0.0
12
376.0000
22
-150.0000
32
0.0
13
396.0000
23
-150.0000
33
0.0
0
SOLID
8
A-WALL-PATT
10
376.0000
20
-150.0000
30
0.0
11
396.0000
21
-150.0000
31
0.0
12
376.0000
22
-130.0000
32
0.0
13
396.0000
23
-130.0000
33
0.0
0
SOLID
8
A-WALL-PATT
10
376.0000
20
-20.0000
30
0.0
11
396.0000
21
-20.0000
31
0.0
12
376.0000
22
0.0000
32
0.0
13
396.0000
23
0.0000
33
0.0
0
SOLID
8
A-WALL-PATT
10
396.0000
20
-355.0000
30
0.0
11
442.0000
21
-355.0000
31
0.0
12
396.0000
22
-335.0000
32
0.0
13
442.0000
23
-335.0000
33
0.0
0
SOLID
8
A-WALL-PATT
10
396.0000
20
-150.0000
30
0.0
11
442.0000
21
-150.0000
31
0.0
12
396.0000
22
-130.0000
32
0.0
13
442.0000
23
-130.0000
33
0.0
0
SOLID
8
A-WALL-PATT
10
396.0000
20
-20.0000
30
0.0
11
442.0000
21
-20.0000
31
0.0
12
396.0000
22
0.0000
32
0.0
13
442.0000
23
0.0000
33
0.0
0
SOLID
8
A-WALL-PATT
10
442.0000
20
-355.0000
30
0.0
11
476.0000
21
-355.0000
31
0.0
12
442.0000
22
-335.0000
32
0.0
13
476.0000
23
-335.0000
33
0.0
0
SOLID
8
A-WALL-PATT
10
442.0000
20
-150.0000
30
0.0
11
476.0000
21
-150.0000
31
0.0
12
442.0000
22
-130.0000
32
0.0
13
476.0000
23
-130.0000
33
0.0
0
SOLID
8
A-WALL-PATT
10
442.0000
20
-20.0000
30
0.0
11
476.0000
21
-20.0000
31
0.0
12
442.0000
22
0.0000
32
0.0
13
476.0000
23
0.0000
33
0.0
0
SOLID
8
A-WALL-PATT
10
442.0000
20
492.0000
30
0.0
11
476.0000
21
492.0000
31
0.0
12
442.0000
22
512.0000
32
0.0
13
476.0000
23
512.0000
33
0.0
0
SOLID
8
A-WALL-PATT
10
476.0000
20
-355.0000
30
0.0
11
496.0000
21
-355.0000
31
0.0
12
476.0000
22
-335.0000
32
0.0
13
496.0000
23
-335.0000
33
0.0
0
SOLID
8
A-WALL-PATT
10
476.0000
20
-150.0000
30
0.0
11
496.0000
21
-150.0000
31
0.0
12
476.0000
22
-130.0000
32
0.0
13
496.0000
23
-130.0000
33
0.0
0
SOLID
8
A-WALL-PATT
10
476.0000
20
-20.0000
30
0.0
11
496.0000
21
-20.0000
31
0.0
12
476.0000
22
0.0000
32
0.0
13
496.0000
23
0.0000
33
0.0
0
SOLID
8
A-WALL-PATT
10
476.0000
20
492.0000
30
0.0
11
496.0000
21
492.0000
31
0.0
12
476.0000
22
512.0000
32
0.0
13
496.0000
23
512.0000
33
0.0
0
SOLID
8
A-WALL-PATT
10
496.0000
20
-355.0000
30
0.0
11
498.0000
21
-355.0000
31
0.0
12
496.0000
22
-335.0000
32
0.0
13
498.0000
23
-335.0000
33
0.0
0
SOLID
8
A-WALL-PATT
10
496.0000
20
-250.0000
30
0.0
11
498.0000
21
-250.0000
31
0.0
12
496.0000
22
-230.0000
32
0.0
13
498.0000
23
-230.0000
33
0.0
0
SOLID
8
A-WALL-PATT
10
496.0000
20
-230.0000
30
0.0
11
498.0000
21
-230.0000
31
0.0
12
496.0000
22
-180.0000
32
0.0
13
498.0000
23
-180.0000
33
0.0
0
SOLID
8
A-WALL-PATT
10
496.0000
20
-180.0000
30
0.0
11
498.0000
21
-180.0000
31
0.0
12
496.0000
22
-150.0000
32
0.0
13
498.0000
23
-150.0000
33
0.0
0
SOLID
8
A-WALL-PATT
10
496.0000
20
-150.0000
30
0.0
11
498.0000
21
-150.0000
31
0.0
12
496.0000
22
-130.0000
32
0.0
13
498.0000
23
-130.0000
33
0.0
0
SOLID
8
A-WALL-PATT
10
496.0000
20
-130.0000
30
0.0
11
498.0000
21
-130.0000
31
0.0
12
496.0000
22
-105.0000
32
0.0
13
498.0000
23
-105.0000
33
0.0
0
SOLID
8
A-WALL-PATT
10
496.0000
20
-105.0000
30
0.0
11
498.0000
21
-105.0000
31
0.0
12
496.0000
22
-100.0000
32
0.0
13
498.0000
23
-100.0000
33
0.0
0
SOLID
8
A-WALL-PATT
10
496.0000
20
-100.0000
30
0.0
11
498.0000
21
-100.0000
31
0.0
12
496.0000
22
-85.0000
32
0.0
13
498.0000
23
-85.0000
33
0.0
0
SOLID
8
A-WALL-PATT
10
496.0000
20
-85.0000
30
0.0
11
498.0000
21
-85.0000
31
0.0
12
496.0000
22
-20.0000
32
0.0
13
498.0000
23
-20.0000
33
0.0
0
SOLID
8
A-WALL-PATT
10
496.0000
20
-20.0000
30
0.0
11
498.0000
21
-20.0000
31
0.0
12
496.0000
22
0.0000
32
0.0
13
498.0000
23
0.0000
33
0.0
0
SOLID
8
A-WALL-PATT
10
496.0000
20
0.0000
30
0.0
11
498.0000
21
0.0000
31
0.0
12
496.0000
22
183.0000
32
0.0
13
498.0000
23
183.0000
33
0.0
0
SOLID
8
A-WALL-PATT
10
496.0000
20
311.0000
30
0.0
11
498.0000
21
311.0000
31
0.0
12
496.0000
22
492.0000
32
0.0
13
498.0000
23
492.0000
33
0.0
0
SOLID
8
A-WALL-PATT
10
496.0000
20
492.0000
30
0.0
11
498.0000
21
492.0000
31
0.0
12
496.0000
22
512.0000
32
0.0
13
498.0000
23
512.0000
33
0.0
0
SOLID
8
A-WALL-PATT
10
498.0000
20
-355.0000
30
0.0
11
516.0000
21
-355.0000
31
0.0
12
498.0000
22
-335.0000
32
0.0
13
516.0000
23
-335.0000
33
0.0
0
SOLID
8
A-WALL-PATT
10
498.0000
20
-250.0000
30
0.0
11
516.0000
21
-250.0000
31
0.0
12
498.0000
22
-230.0000
32
0.0
13
516.0000
23
-230.0000
33
0.0
0
SOLID
8
A-WALL-PATT
10
498.0000
20
-230.0000
30
0.0
11
516.0000
21
-230.0000
31
0.0
12
498.0000
22
-180.0000
32
0.0
13
516.0000
23
-180.0000
33
0.0
0
SOLID
8
A-WALL-PATT
10
498.0000
20
-180.0000
30
0.0
11
516.0000
21
-180.0000
31
0.0
12
498.0000
22
-150.0000
32
0.0
13
516.0000
23
-150.0000
33
0.0
0
SOLID
8
A-WALL-PATT
10
498.0000
20
-150.0000
30
0.0
11
516.0000
21
-150.0000
31
0.0
12
498.0000
22
-130.0000
32
0.0
13
516.0000
23
-130.0000
33
0.0
0
SOLID
8
A-WALL-PATT
10
498.0000
20
-130.0000
30
0.0
11
516.0000
21
-130.0000
31
0.0
12
498.0000
22
-105.0000
32
0.0
13
516.0000
23
-105.0000
33
0.0
0
SOLID
8
A-WALL-PATT
10
498.0000
20
-105.0000
30
0.0
11
516.0000
21
-105.0000
31
0.0
12
498.0000
22
-100.0000
32
0.0
13
516.0000
23
-100.0000
33
0.0
0
SOLID
8
A-WALL-PATT
10
498.0000
20
-100.0000
30
0.0
11
516.0000
21
-100.0000
31
0.0
12
498.0000
22
-85.0000
32
0.0
13
516.0000
23
-85.0000
33
0.0
0
SOLID
8
A-WALL-PATT
10
498.0000
20
-85.0000
30
0.0
11
516.0000
21
-85.0000
31
0.0
12
498.0000
22
-20.0000
32
0.0
13
516.0000
23
-20.0000
33
0.0
0
SOLID
8
A-WALL-PATT
10
498.0000
20
-20.0000
30
0.0
11
516.0000
21
-20.0000
31
0.0
12
498.0000
22
0.0000
32
0.0
13
516.0000
23
0.0000
33
0.0
0
SOLID
8
A-WALL-PATT
10
498.0000
20
0.0000
30
0.0
11
516.0000
21
0.0000
31
0.0
12
498.0000
22
183.0000
32
0.0
13
516.0000
23
183.0000
33
0.0
0
SOLID
8
A-WALL-PATT
10
498.0000
20
311.0000
30
0.0
11
516.0000
21
311.0000
31
0.0
12
498.0000
22
492.0000
32
0.0
13
516.0000
23
492.0000
33
0.0
0
SOLID
8
A-WALL-PATT
10
498.0000
20
492.0000
30
0.0
11
516.0000
21
492.0000
31
0.0
12
498.0000
22
512.0000
32
0.0
13
516.0000
23
512.0000
33
0.0
0
SOLID
8
A-WALL-PATT
10
516.0000
20
-355.0000
30
0.0
11
518.0000
21
-355.0000
31
0.0
12
516.0000
22
-335.0000
32
0.0
13
518.0000
23
-335.0000
33
0.0
0
SOLID
8
A-WALL-PATT
10
516.0000
20
-250.0000
30
0.0
11
518.0000
21
-250.0000
31
0.0
12
516.0000
22
-230.0000
32
0.0
13
518.0000
23
-230.0000
33
0.0
0
SOLID
8
A-WALL-PATT
10
516.0000
20
-20.0000
30
0.0
11
518.0000
21
-20.0000
31
0.0
12
516.0000
22
0.0000
32
0.0
13
518.0000
23
0.0000
33
0.0
0
SOLID
8
A-WALL-PATT
10
516.0000
20
0.0000
30
0.0
11
518.0000
21
0.0000
31
0.0
12
516.0000
22
183.0000
32
0.0
13
518.0000
23
183.0000
33
0.0
0
SOLID
8
A-WALL-PATT
10
516.0000
20
311.0000
30
0.0
11
518.0000
21
311.0000
31
0.0
12
516.0000
22
492.0000
32
0.0
13
518.0000
23
492.0000
33
0.0
0
SOLID
8
A-WALL-PATT
10
516.0000
20
492.0000
30
0.0
11
518.0000
21
492.0000
31
0.0
12
516.0000
22
512.0000
32
0.0
13
518.0000
23
512.0000
33
0.0
0
SOLID
8
A-WALL-PATT
10
518.0000
20
-355.0000
30
0.0
11
560.0000
21
-355.0000
31
0.0
12
518.0000
22
-335.0000
32
0.0
13
560.0000
23
-335.0000
33
0.0
0
SOLID
8
A-WALL-PATT
10
518.0000
20
-250.0000
30
0.0
11
560.0000
21
-250.0000
31
0.0
12
518.0000
22
-230.0000
32
0.0
13
560.0000
23
-230.0000
33
0.0
0
SOLID
8
A-WALL-PATT
10
518.0000
20
-20.0000
30
0.0
11
560.0000
21
-20.0000
31
0.0
12
518.0000
22
0.0000
32
0.0
13
560.0000
23
0.0000
33
0.0
0
SOLID
8
A-WALL-PATT
10
518.0000
20
492.0000
30
0.0
11
560.0000
21
492.0000
31
0.0
12
518.0000
22
512.0000
32
0.0
13
560.0000
23
512.0000
33
0.0
0
SOLID
8
A-WALL-PATT
10
560.0000
20
-355.0000
30
0.0
11
620.0000
21
-355.0000
31
0.0
12
560.0000
22
-335.0000
32
0.0
13
620.0000
23
-335.0000
33
0.0
0
SOLID
8
A-WALL-PATT
10
560.0000
20
-20.0000
30
0.0
11
620.0000
21
-20.0000
31
0.0
12
560.0000
22
0.0000
32
0.0
13
620.0000
23
0.0000
33
0.0
0
SOLID
8
A-WALL-PATT
10
560.0000
20
492.0000
30
0.0
11
620.0000
21
492.0000
31
0.0
12
560.0000
22
512.0000
32
0.0
13
620.0000
23
512.0000
33
0.0
0
SOLID
8
A-WALL-PATT
10
620.0000
20
-355.0000
30
0.0
11
660.0000
21
-355.0000
31
0.0
12
620.0000
22
-335.0000
32
0.0
13
660.0000
23
-335.0000
33
0.0
0
SOLID
8
A-WALL-PATT
10
620.0000
20
-20.0000
30
0.0
11
660.0000
21
-20.0000
31
0.0
12
620.0000
22
0.0000
32
0.0
13
660.0000
23
0.0000
33
0.0
0
SOLID
8
A-WALL-PATT
10
660.0000
20
-355.0000
30
0.0
11
726.0000
21
-355.0000
31
0.0
12
660.0000
22
-335.0000
32
0.0
13
726.0000
23
-335.0000
33
0.0
0
SOLID
8
A-WALL-PATT
10
660.0000
20
-250.0000
30
0.0
11
726.0000
21
-250.0000
31
0.0
12
660.0000
22
-230.0000
32
0.0
13
726.0000
23
-230.0000
33
0.0
0
SOLID
8
A-WALL-PATT
10
660.0000
20
-20.0000
30
0.0
11
726.0000
21
-20.0000
31
0.0
12
660.0000
22
0.0000
32
0.0
13
726.0000
23
0.0000
33
0.0
0
SOLID
8
A-WALL-PATT
10
726.0000
20
-355.0000
30
0.0
11
737.0000
21
-355.0000
31
0.0
12
726.0000
22
-335.0000
32
0.0
13
737.0000
23
-335.0000
33
0.0
0
SOLID
8
A-WALL-PATT
10
726.0000
20
-250.0000
30
0.0
11
737.0000
21
-250.0000
31
0.0
12
726.0000
22
-230.0000
32
0.0
13
737.0000
23
-230.0000
33
0.0
0
SOLID
8
A-WALL-PATT
10
726.0000
20
-230.0000
30
0.0
11
737.0000
21
-230.0000
31
0.0
12
726.0000
22
-180.0000
32
0.0
13
737.0000
23
-180.0000
33
0.0
0
SOLID
8
A-WALL-PATT
10
726.0000
20
-180.0000
30
0.0
11
737.0000
21
-180.0000
31
0.0
12
726.0000
22
-150.0000
32
0.0
13
737.0000
23
-150.0000
33
0.0
0
SOLID
8
A-WALL-PATT
10
726.0000
20
-150.0000
30
0.0
11
737.0000
21
-150.0000
31
0.0
12
726.0000
22
-130.0000
32
0.0
13
737.0000
23
-130.0000
33
0.0
0
SOLID
8
A-WALL-PATT
10
726.0000
20
-130.0000
30
0.0
11
737.0000
21
-130.0000
31
0.0
12
726.0000
22
-105.0000
32
0.0
13
737.0000
23
-105.0000
33
0.0
0
SOLID
8
A-WALL-PATT
10
726.0000
20
-105.0000
30
0.0
11
737.0000
21
-105.0000
31
0.0
12
726.0000
22
-100.0000
32
0.0
13
737.0000
23
-100.0000
33
0.0
0
SOLID
8
A-WALL-PATT
10
726.0000
20
-100.0000
30
0.0
11
737.0000
21
-100.0000
31
0.0
12
726.0000
22
-85.0000
32
0.0
13
737.0000
23
-85.0000
33
0.0
0
SOLID
8
A-WALL-PATT
10
726.0000
20
-85.0000
30
0.0
11
737.0000
21
-85.0000
31
0.0
12
726.0000
22
-20.0000
32
0.0
13
737.0000
23
-20.0000
33
0.0
0
SOLID
8
A-WALL-PATT
10
726.0000
20
-20.0000
30
0.0
11
737.0000
21
-20.0000
31
0.0
12
726.0000
22
0.0000
32
0.0
13
737.0000
23
0.0000
33
0.0
0
SOLID
8
A-WALL-PATT
10
737.0000
20
-355.0000
30
0.0
11
746.0000
21
-355.0000
31
0.0
12
737.0000
22
-335.0000
32
0.0
13
746.0000
23
-335.0000
33
0.0
0
SOLID
8
A-WALL-PATT
10
737.0000
20
-250.0000
30
0.0
11
746.0000
21
-250.0000
31
0.0
12
737.0000
22
-230.0000
32
0.0
13
746.0000
23
-230.0000
33
0.0
0
SOLID
8
A-WALL-PATT
10
737.0000
20
-230.0000
30
0.0
11
746.0000
21
-230.0000
31
0.0
12
737.0000
22
-180.0000
32
0.0
13
746.0000
23
-180.0000
33
0.0
0
SOLID
8
A-WALL-PATT
10
737.0000
20
-180.0000
30
0.0
11
746.0000
21
-180.0000
31
0.0
12
737.0000
22
-150.0000
32
0.0
13
746.0000
23
-150.0000
33
0.0
0
SOLID
8
A-WALL-PATT
10
737.0000
20
-150.0000
30
0.0
11
746.0000
21
-150.0000
31
0.0
12
737.0000
22
-130.0000
32
0.0
13
746.0000
23
-130.0000
33
0.0
0
SOLID
8
A-WALL-PATT
10
737.0000
20
-130.0000
30
0.0
11
746.0000
21
-130.0000
31
0.0
12
737.0000
22
-105.0000
32
0.0
13
746.0000
23
-105.0000
33
0.0
0
SOLID
8
A-WALL-PATT
10
737.0000
20
-105.0000
30
0.0
11
746.0000
21
-105.0000
31
0.0
12
737.0000
22
-100.0000
32
0.0
13
746.0000
23
-100.0000
33
0.0
0
SOLID
8
A-WALL-PATT
10
737.0000
20
-100.0000
30
0.0
11
746.0000
21
-100.0000
31
0.0
12
737.0000
22
-85.0000
32
0.0
13
746.0000
23
-85.0000
33
0.0
0
SOLID
8
A-WALL-PATT
10
737.0000
20
-85.0000
30
0.0
11
746.0000
21
-85.0000
31
0.0
12
737.0000
22
-20.0000
32
0.0
13
746.0000
23
-20.0000
33
0.0
0
SOLID
8
A-WALL-PATT
10
737.0000
20
-20.0000
30
0.0
11
746.0000
21
-20.0000
31
0.0
12
737.0000
22
0.0000
32
0.0
13
746.0000
23
0.0000
33
0.0
0
SOLID
8
A-WALL-PATT
10
737.0000
20
492.0000
30
0.0
11
746.0000
21
492.0000
31
0.0
12
737.0000
22
512.0000
32
0.0
13
746.0000
23
512.0000
33
0.0
0
SOLID
8
A-WALL-PATT
10
746.0000
20
-355.0000
30
0.0
11
840.0000
21
-355.0000
31
0.0
12
746.0000
22
-335.0000
32
0.0
13
840.0000
23
-335.0000
33
0.0
0
SOLID
8
A-WALL-PATT
10
746.0000
20
-250.0000
30
0.0
11
840.0000
21
-250.0000
31
0.0
12
746.0000
22
-230.0000
32
0.0
13
840.0000
23
-230.0000
33
0.0
0
SOLID
8
A-WALL-PATT
10
746.0000
20
-20.0000
30
0.0
11
840.0000
21
-20.0000
31
0.0
12
746.0000
22
0.0000
32
0.0
13
840.0000
23
0.0000
33
0.0
0
SOLID
8
A-WALL-PATT
10
746.0000
20
492.0000
30
0.0
11
840.0000
21
492.0000
31
0.0
12
746.0000
22
512.0000
32
0.0
13
840.0000
23
512.0000
33
0.0
0
SOLID
8
A-WALL-PATT
10
840.0000
20
-355.0000
30
0.0
11
866.0000
21
-355.0000
31
0.0
12
840.0000
22
-335.0000
32
0.0
13
866.0000
23
-335.0000
33
0.0
0
SOLID
8
A-WALL-PATT
10
840.0000
20
-250.0000
30
0.0
11
866.0000
21
-250.0000
31
0.0
12
840.0000
22
-230.0000
32
0.0
13
866.0000
23
-230.0000
33
0.0
0
SOLID
8
A-WALL-PATT
10
840.0000
20
-20.0000
30
0.0
11
866.0000
21
-20.0000
31
0.0
12
840.0000
22
0.0000
32
0.0
13
866.0000
23
0.0000
33
0.0
0
SOLID
8
A-WALL-PATT
10
866.0000
20
-470.0000
30
0.0
11
886.0000
21
-470.0000
31
0.0
12
866.0000
22
-450.0000
32
0.0
13
886.0000
23
-450.0000
33
0.0
0
SOLID
8
A-WALL-PATT
10
866.0000
20
-450.0000
30
0.0
11
886.0000
21
-450.0000
31
0.0
12
866.0000
22
-385.0000
32
0.0
13
886.0000
23
-385.0000
33
0.0
0
SOLID
8
A-WALL-PATT
10
866.0000
20
-385.0000
30
0.0
11
886.0000
21
-385.0000
31
0.0
12
866.0000
22
-365.0000
32
0.0
13
886.0000
23
-365.0000
33
0.0
0
SOLID
8
A-WALL-PATT
10
866.0000
20
-365.0000
30
0.0
11
886.0000
21
-365.0000
31
0.0
12
866.0000
22
-355.0000
32
0.0
13
886.0000
23
-355.0000
33
0.0
0
SOLID
8
A-WALL-PATT
10
866.0000
20
-355.0000
30
0.0
11
886.0000
21
-355.0000
31
0.0
12
866.0000
22
-335.0000
32
0.0
13
886.0000
23
-335.0000
33
0.0
0
SOLID
8
A-WALL-PATT
10
866.0000
20
-335.0000
30
0.0
11
886.0000
21
-335.0000
31
0.0
12
866.0000
22
-330.0000
32
0.0
13
886.0000
23
-330.0000
33
0.0
0
SOLID
8
A-WALL-PATT
10
866.0000
20
-255.0000
30
0.0
11
886.0000
21
-255.0000
31
0.0
12
866.0000
22
-250.0000
32
0.0
13
886.0000
23
-250.0000
33
0.0
0
SOLID
8
A-WALL-PATT
10
866.0000
20
-250.0000
30
0.0
11
886.0000
21
-250.0000
31
0.0
12
866.0000
22
-230.0000
32
0.0
13
886.0000
23
-230.0000
33
0.0
0
SOLID
8
A-WALL-PATT
10
866.0000
20
-230.0000
30
0.0
11
886.0000
21
-230.0000
31
0.0
12
866.0000
22
-180.0000
32
0.0
13
886.0000
23
-180.0000
33
0.0
0
SOLID
8
A-WALL-PATT
10
866.0000
20
-100.0000
30
0.0
11
886.0000
21
-100.0000
31
0.0
12
866.0000
22
-85.0000
32
0.0
13
886.0000
23
-85.0000
33
0.0
0
SOLID
8
A-WALL-PATT
10
866.0000
20
-85.0000
30
0.0
11
886.0000
21
-85.0000
31
0.0
12
866.0000
22
-20.0000
32
0.0
13
886.0000
23
-20.0000
33
0.0
0
SOLID
8
A-WALL-PATT
10
866.0000
20
-20.0000
30
0.0
11
886.0000
21
-20.0000
31
0.0
12
866.0000
22
0.0000
32
0.0
13
886.0000
23
0.0000
33
0.0
0
SOLID
8
A-WALL-PATT
10
886.0000
20
-470.0000
30
0.0
11
896.0000
21
-470.0000
31
0.0
12
886.0000
22
-450.0000
32
0.0
13
896.0000
23
-450.0000
33
0.0
0
SOLID
8
A-WALL-PATT
10
886.0000
20
-20.0000
30
0.0
11
896.0000
21
-20.0000
31
0.0
12
886.0000
22
0.0000
32
0.0
13
896.0000
23
0.0000
33
0.0
0
SOLID
8
A-WALL-PATT
10
896.0000
20
-20.0000
30
0.0
11
914.0000
21
-20.0000
31
0.0
12
896.0000
22
0.0000
32
0.0
13
914.0000
23
0.0000
33
0.0
0
SOLID
8
A-WALL-PATT
10
958.0000
20
492.0000
30
0.0
11
996.0000
21
492.0000
31
0.0
12
958.0000
22
512.0000
32
0.0
13
996.0000
23
512.0000
33
0.0
0
SOLID
8
A-WALL-PATT
10
996.0000
20
-470.0000
30
0.0
11
1022.0000
21
-470.0000
31
0.0
12
996.0000
22
-450.0000
32
0.0
13
1022.0000
23
-450.0000
33
0.0
0
SOLID
8
A-WALL-PATT
10
996.0000
20
492.0000
30
0.0
11
1022.0000
21
492.0000
31
0.0
12
996.0000
22
512.0000
32
0.0
13
1022.0000
23
512.0000
33
0.0
0
SOLID
8
A-WALL-PATT
10
1022.0000
20
-470.0000
30
0.0
11
1042.0000
21
-470.0000
31
0.0
12
1022.0000
22
-450.0000
32
0.0
13
1042.0000
23
-450.0000
33
0.0
0
SOLID
8
A-WALL-PATT
10
1022.0000
20
-20.0000
30
0.0
11
1042.0000
21
-20.0000
31
0.0
12
1022.0000
22
0.0000
32
0.0
13
1042.0000
23
0.0000
33
0.0
0
SOLID
8
A-WALL-PATT
10
1022.0000
20
0.0000
30
0.0
11
1042.0000
21
0.0000
31
0.0
12
1022.0000
22
183.0000
32
0.0
13
1042.0000
23
183.0000
33
0.0
0
SOLID
8
A-WALL-PATT
10
1022.0000
20
183.0000
30
0.0
11
1042.0000
21
183.0000
31
0.0
12
1022.0000
22
311.0000
32
0.0
13
1042.0000
23
311.0000
33
0.0
0
SOLID
8
A-WALL-PATT
10
1022.0000
20
311.0000
30
0.0
11
1042.0000
21
311.0000
31
0.0
12
1022.0000
22
492.0000
32
0.0
13
1042.0000
23
492.0000
33
0.0
0
SOLID
8
A-WALL-PATT
10
1022.0000
20
492.0000
30
0.0
11
1042.0000
21
492.0000
31
0.0
12
1022.0000
22
512.0000
32
0.0
13
1042.0000
23
512.0000
33
0.0
0
SOLID
8
A-WALL-PATT
10
1042.0000
20
-470.0000
30
0.0
11
1077.0000
21
-470.0000
31
0.0
12
1042.0000
22
-450.0000
32
0.0
13
1077.0000
23
-450.0000
33
0.0
0
SOLID
8
A-WALL-PATT
10
1042.0000
20
-450.0000
30
0.0
11
1077.0000
21
-450.0000
31
0.0
12
1042.0000
22
-385.0000
32
0.0
13
1077.0000
23
-385.0000
33
0.0
0
SOLID
8
A-WALL-PATT
10
1042.0000
20
-85.0000
30
0.0
11
1077.0000
21
-85.0000
31
0.0
12
1042.0000
22
-20.0000
32
0.0
13
1077.0000
23
-20.0000
33
0.0
0
SOLID
8
A-WALL-PATT
10
1042.0000
20
-20.0000
30
0.0
11
1077.0000
21
-20.0000
31
0.0
12
1042.0000
22
0.0000
32
0.0
13
1077.0000
23
0.0000
33
0.0
0
SOLID
8
A-WALL-PATT
10
1077.0000
20
-470.0000
30
0.0
11
1086.0000
21
-470.0000
31
0.0
12
1077.0000
22
-450.0000
32
0.0
13
1086.0000
23
-450.0000
33
0.0
0
SOLID
8
A-WALL-PATT
10
1077.0000
20
-20.0000
30
0.0
11
1086.0000
21
-20.0000
31
0.0
12
1077.0000
22
0.0000
32
0.0
13
1086.0000
23
0.0000
33
0.0
0
SOLID
8
A-WALL-PATT
10
1086.0000
20
-20.0000
30
0.0
11
1097.0000
21
-20.0000
31
0.0
12
1086.0000
22
0.0000
32
0.0
13
1097.0000
23
0.0000
33
0.0
0
SOLID
8
A-WALL-PATT
10
1097.0000
20
-20.0000
30
0.0
11
1236.0000
21
-20.0000
31
0.0
12
1097.0000
22
0.0000
32
0.0
13
1236.0000
23
0.0000
33
0.0
0
SOLID
8
A-WALL-PATT
10
1236.0000
20
-470.0000
30
0.0
11
1251.0000
21
-470.0000
31
0.0
12
1236.0000
22
-450.0000
32
0.0
13
1251.0000
23
-450.0000
33
0.0
0
SOLID
8
A-WALL-PATT
10
1236.0000
20
-20.0000
30
0.0
11
1251.0000
21
-20.0000
31
0.0
12
1236.0000
22
0.0000
32
0.0
13
1251.0000
23
0.0000
33
0.0
0
SOLID
8
A-WALL-PATT
10
1251.0000
20
-470.0000
30
0.0
11
1271.0000
21
-470.0000
31
0.0
12
1251.0000
22
-450.0000
32
0.0
13
1271.0000
23
-450.0000
33
0.0
0
SOLID
8
A-WALL-PATT
10
1251.0000
20
-450.0000
30
0.0
11
1271.0000
21
-450.0000
31
0.0
12
1251.0000
22
-385.0000
32
0.0
13
1271.0000
23
-385.0000
33
0.0
0
SOLID
8
A-WALL-PATT
10
1251.0000
20
-385.0000
30
0.0
11
1271.0000
21
-385.0000
31
0.0
12
1251.0000
22
-365.0000
32
0.0
13
1271.0000
23
-365.0000
33
0.0
0
SOLID
8
A-WALL-PATT
10
1251.0000
20
-365.0000
30
0.0
11
1271.0000
21
-365.0000
31
0.0
12
1251.0000
22
-355.0000
32
0.0
13
1271.0000
23
-355.0000
33
0.0
0
SOLID
8
A-WALL-PATT
10
1251.0000
20
-355.0000
30
0.0
11
1271.0000
21
-355.0000
31
0.0
12
1251.0000
22
-335.0000
32
0.0
13
1271.0000
23
-335.0000
33
0.0
0
SOLID
8
A-WALL-PATT
10
1251.0000
20
-335.0000
30
0.0
11
1271.0000
21
-335.0000
31
0.0
12
1251.0000
22
-330.0000
32
0.0
13
1271.0000
23
-330.0000
33
0.0
0
SOLID
8
A-WALL-PATT
10
1251.0000
20
-330.0000
30
0.0
11
1271.0000
21
-330.0000
31
0.0
12
1251.0000
22
-255.0000
32
0.0
13
1271.0000
23
-255.0000
33
0.0
0
SOLID
8
A-WALL-PATT
10
1251.0000
20
-255.0000
30
0.0
11
1271.0000
21
-255.0000
31
0.0
12
1251.0000
22
-250.0000
32
0.0
13
1271.0000
23
-250.0000
33
0.0
0
SOLID
8
A-WALL-PATT
10
1251.0000
20
-250.0000
30
0.0
11
1271.0000
21
-250.0000
31
0.0
12
1251.0000
22
-230.0000
32
0.0
13
1271.0000
23
-230.0000
33
0.0
0
SOLID
8
A-WALL-PATT
10
1251.0000
20
-230.0000
30
0.0
11
1271.0000
21
-230.0000
31
0.0
12
1251.0000
22
-180.0000
32
0.0
13
1271.0000
23
-180.0000
33
0.0
0
SOLID
8
A-WALL-PATT
10
1251.0000
20
-180.0000
30
0.0
11
1271.0000
21
-180.0000
31
0.0
12
1251.0000
22
-150.0000
32
0.0
13
1271.0000
23
-150.0000
33
0.0
0
SOLID
8
A-WALL-PATT
10
1251.0000
20
-150.0000
30
0.0
11
1271.0000
21
-150.0000
31
0.0
12
1251.0000
22
-130.0000
32
0.0
13
1271.0000
23
-130.0000
33
0.0
0
SOLID
8
A-WALL-PATT
10
1251.0000
20
-130.0000
30
0.0
11
1271.0000
21
-130.0000
31
0.0
12
1251.0000
22
-105.0000
32
0.0
13
1271.0000
23
-105.0000
33
0.0
0
SOLID
8
A-WALL-PATT
10
1251.0000
20
-105.0000
30
0.0
11
1271.0000
21
-105.0000
31
0.0
12
1251.0000
22
-100.0000
32
0.0
13
1271.0000
23
-100.0000
33
0.0
0
SOLID
8
A-WALL-PATT
10
1251.0000
20
-100.0000
30
0.0
11
1271.0000
21
-100.0000
31
0.0
12
1251.0000
22
-85.0000
32
0.0
13
1271.0000
23
-85.0000
33
0.0
0
SOLID
8
A-WALL-PATT
10
1251.0000
20
-85.0000
30
0.0
11
1271.0000
21
-85.0000
31
0.0
12
1251.0000
22
-20.0000
32
0.0
13
1271.0000
23
-20.0000
33
0.0
0
SOLID
8
A-WALL-PATT
10
1251.0000
20
-20.0000
30
0.0
11
1271.0000
21
-20.0000
31
0.0
12
1251.0000
22
0.0000
32
0.0
13
1271.0000
23
0.0000
33
0.0
0
LINE
8
A-WALL
10
-20.0000
20
-20.0000
30
0.0
11
0.0000
21
-20.0000
31
0.0
0
LINE
8
A-WALL
10
-20.0000
20
0.0000
30
0.0
11
-20.0000
21
-20.0000
31
0.0
0
LINE
8
A-WALL
10
-20.0000
20
183.0000
30
0.0
11
-20.0000
21
0.0000
31
0.0
0
LINE
8
A-WALL
10
-20.0000
20
311.0000
30
0.0
11
-20.0000
21
183.0000
31
0.0
0
LINE
8
A-WALL
10
-20.0000
20
492.0000
30
0.0
11
-20.0000
21
311.0000
31
0.0
0
LINE
8
A-WALL
10
0.0000
20
512.0000
30
0.0
11
-20.0000
21
512.0000
31
0.0
0
LINE
8
A-WALL
10
-20.0000
20
512.0000
30
0.0
11
-20.0000
21
492.0000
31
0.0
0
LINE
8
A-WALL
10
0.0000
20
-20.0000
30
0.0
11
93.0000
21
-20.0000
31
0.0
0
LINE
8
A-WALL
10
93.0000
20
512.0000
30
0.0
11
0.0000
21
512.0000
31
0.0
0
LINE
8
A-WALL
10
93.0000
20
-20.0000
30
0.0
11
205.0000
21
-20.0000
31
0.0
0
LINE
8
A-WALL
10
205.0000
20
512.0000
30
0.0
11
93.0000
21
512.0000
31
0.0
0
LINE
8
A-WALL
10
205.0000
20
-20.0000
30
0.0
11
327.0000
21
-20.0000
31
0.0
0
LINE
8
A-WALL
10
327.0000
20
512.0000
30
0.0
11
205.0000
21
512.0000
31
0.0
0
LINE
8
A-WALL
10
327.0000
20
-20.0000
30
0.0
11
376.0000
21
-20.0000
31
0.0
0
LINE
8
A-WALL
10
376.0000
20
512.0000
30
0.0
11
327.0000
21
512.0000
31
0.0
0
LINE
8
A-WALL
10
376.0000
20
-355.0000
30
0.0
11
396.0000
21
-355.0000
31
0.0
0
LINE
8
A-WALL
10
376.0000
20
-335.0000
30
0.0
11
376.0000
21
-355.0000
31
0.0
0
LINE
8
A-WALL
10
376.0000
20
-330.0000
30
0.0
11
376.0000
21
-335.0000
31
0.0
0
LINE
8
A-WALL
10
376.0000
20
-255.0000
30
0.0
11
376.0000
21
-330.0000
31
0.0
0
LINE
8
A-WALL
10
376.0000
20
-250.0000
30
0.0
11
376.0000
21
-255.0000
31
0.0
0
LINE
8
A-WALL
10
376.0000
20
-230.0000
30
0.0
11
376.0000
21
-250.0000
31
0.0
0
LINE
8
A-WALL
10
376.0000
20
-180.0000
30
0.0
11
376.0000
21
-230.0000
31
0.0
0
LINE
8
A-WALL
10
376.0000
20
-150.0000
30
0.0
11
376.0000
21
-180.0000
31
0.0
0
LINE
8
A-WALL
10
396.0000
20
-130.0000
30
0.0
11
376.0000
21
-130.0000
31
0.0
0
LINE
8
A-WALL
10
376.0000
20
-130.0000
30
0.0
11
376.0000
21
-150.0000
31
0.0
0
LINE
8
A-WALL
10
376.0000
20
-20.0000
30
0.0
11
396.0000
21
-20.0000
31
0.0
0
LINE
8
A-WALL
10
396.0000
20
512.0000
30
0.0
11
376.0000
21
512.0000
31
0.0
0
LINE
8
A-WALL
10
396.0000
20
-355.0000
30
0.0
11
442.0000
21
-355.0000
31
0.0
0
LINE
8
A-WALL
10
442.0000
20
-130.0000
30
0.0
11
396.0000
21
-130.0000
31
0.0
0
LINE
8
A-WALL
10
396.0000
20
-20.0000
30
0.0
11
442.0000
21
-20.0000
31
0.0
0
LINE
8
A-WALL
10
442.0000
20
512.0000
30
0.0
11
396.0000
21
512.0000
31
0.0
0
LINE
8
A-WALL
10
442.0000
20
-355.0000
30
0.0
11
476.0000
21
-355.0000
31
0.0
0
LINE
8
A-WALL
10
476.0000
20
-130.0000
30
0.0
11
442.0000
21
-130.0000
31
0.0
0
LINE
8
A-WALL
10
442.0000
20
-20.0000
30
0.0
11
476.0000
21
-20.0000
31
0.0
0
LINE
8
A-WALL
10
476.0000
20
512.0000
30
0.0
11
442.0000
21
512.0000
31
0.0
0
LINE
8
A-WALL
10
476.0000
20
-355.0000
30
0.0
11
496.0000
21
-355.0000
31
0.0
0
LINE
8
A-WALL
10
496.0000
20
-130.0000
30
0.0
11
476.0000
21
-130.0000
31
0.0
0
LINE
8
A-WALL
10
476.0000
20
-20.0000
30
0.0
11
496.0000
21
-20.0000
31
0.0
0
LINE
8
A-WALL
10
496.0000
20
512.0000
30
0.0
11
476.0000
21
512.0000
31
0.0
0
LINE
8
A-WALL
10
496.0000
20
-355.0000
30
0.0
11
498.0000
21
-355.0000
31
0.0
0
LINE
8
A-WALL
10
496.0000
20
-105.0000
30
0.0
11
496.0000
21
-130.0000
31
0.0
0
LINE
8
A-WALL
10
496.0000
20
-100.0000
30
0.0
11
496.0000
21
-105.0000
31
0.0
0
LINE
8
A-WALL
10
496.0000
20
-85.0000
30
0.0
11
496.0000
21
-100.0000
31
0.0
0
LINE
8
A-WALL
10
496.0000
20
-20.0000
30
0.0
11
496.0000
21
-85.0000
31
0.0
0
LINE
8
A-WALL
10
498.0000
20
512.0000
30
0.0
11
496.0000
21
512.0000
31
0.0
0
LINE
8
A-WALL
10
498.0000
20
-355.0000
30
0.0
11
516.0000
21
-355.0000
31
0.0
0
LINE
8
A-WALL
10
516.0000
20
512.0000
30
0.0
11
498.0000
21
512.0000
31
0.0
0
LINE
8
A-WALL
10
516.0000
20
-355.0000
30
0.0
11
518.0000
21
-355.0000
31
0.0
0
LINE
8
A-WALL
10
518.0000
20
512.0000
30
0.0
11
516.0000
21
512.0000
31
0.0
0
LINE
8
A-WALL
10
518.0000
20
-355.0000
30
0.0
11
560.0000
21
-355.0000
31
0.0
0
LINE
8
A-WALL
10
560.0000
20
512.0000
30
0.0
11
518.0000
21
512.0000
31
0.0
0
LINE
8
A-WALL
10
560.0000
20
-355.0000
30
0.0
11
620.0000
21
-355.0000
31
0.0
0
LINE
8
A-WALL
10
620.0000
20
512.0000
30
0.0
11
560.0000
21
512.0000
31
0.0
0
LINE
8
A-WALL
10
620.0000
20
-355.0000
30
0.0
11
660.0000
21
-355.0000
31
0.0
0
LINE
8
A-WALL
10
660.0000
20
512.0000
30
0.0
11
620.0000
21
512.0000
31
0.0
0
LINE
8
A-WALL
10
660.0000
20
-355.0000
30
0.0
11
726.0000
21
-355.0000
31
0.0
0
LINE
8
A-WALL
10
726.0000
20
512.0000
30
0.0
11
660.0000
21
512.0000
31
0.0
0
LINE
8
A-WALL
10
726.0000
20
-355.0000
30
0.0
11
737.0000
21
-355.0000
31
0.0
0
LINE
8
A-WALL
10
737.0000
20
512.0000
30
0.0
11
726.0000
21
512.0000
31
0.0
0
LINE
8
A-WALL
10
737.0000
20
-355.0000
30
0.0
11
746.0000
21
-355.0000
31
0.0
0
LINE
8
A-WALL
10
746.0000
20
512.0000
30
0.0
11
737.0000
21
512.0000
31
0.0
0
LINE
8
A-WALL
10
746.0000
20
-355.0000
30
0.0
11
840.0000
21
-355.0000
31
0.0
0
LINE
8
A-WALL
10
840.0000
20
512.0000
30
0.0
11
746.0000
21
512.0000
31
0.0
0
LINE
8
A-WALL
10
840.0000
20
-355.0000
30
0.0
11
866.0000
21
-355.0000
31
0.0
0
LINE
8
A-WALL
10
866.0000
20
512.0000
30
0.0
11
840.0000
21
512.0000
31
0.0
0
LINE
8
A-WALL
10
866.0000
20
-470.0000
30
0.0
11
886.0000
21
-470.0000
31
0.0
0
LINE
8
A-WALL
10
866.0000
20
-450.0000
30
0.0
11
866.0000
21
-470.0000
31
0.0
0
LINE
8
A-WALL
10
866.0000
20
-385.0000
30
0.0
11
866.0000
21
-450.0000
31
0.0
0
LINE
8
A-WALL
10
866.0000
20
-365.0000
30
0.0
11
866.0000
21
-385.0000
31
0.0
0
LINE
8
A-WALL
10
866.0000
20
-355.0000
30
0.0
11
866.0000
21
-365.0000
31
0.0
0
LINE
8
A-WALL
10
886.0000
20
512.0000
30
0.0
11
866.0000
21
512.0000
31
0.0
0
LINE
8
A-WALL
10
886.0000
20
-470.0000
30
0.0
11
896.0000
21
-470.0000
31
0.0
0
LINE
8
A-WALL
10
896.0000
20
512.0000
30
0.0
11
886.0000
21
512.0000
31
0.0
0
LINE
8
A-WALL
10
896.0000
20
-470.0000
30
0.0
11
914.0000
21
-470.0000
31
0.0
0
LINE
8
A-WALL
10
914.0000
20
512.0000
30
0.0
11
896.0000
21
512.0000
31
0.0
0
LINE
8
A-WALL
10
914.0000
20
-470.0000
30
0.0
11
958.0000
21
-470.0000
31
0.0
0
LINE
8
A-WALL
10
958.0000
20
512.0000
30
0.0
11
914.0000
21
512.0000
31
0.0
0
LINE
8
A-WALL
10
958.0000
20
-470.0000
30
0.0
11
996.0000
21
-470.0000
31
0.0
0
LINE
8
A-WALL
10
996.0000
20
512.0000
30
0.0
11
958.0000
21
512.0000
31
0.0
0
LINE
8
A-WALL
10
996.0000
20
-470.0000
30
0.0
11
1022.0000
21
-470.0000
31
0.0
0
LINE
8
A-WALL
10
1022.0000
20
512.0000
30
0.0
11
996.0000
21
512.0000
31
0.0
0
LINE
8
A-WALL
10
1022.0000
20
-470.0000
30
0.0
11
1042.0000
21
-470.0000
31
0.0
0
LINE
8
A-WALL
10
1042.0000
20
0.0000
30
0.0
11
1042.0000
21
183.0000
31
0.0
0
LINE
8
A-WALL
10
1042.0000
20
183.0000
30
0.0
11
1042.0000
21
311.0000
31
0.0
0
LINE
8
A-WALL
10
1042.0000
20
311.0000
30
0.0
11
1042.0000
21
492.0000
31
0.0
0
LINE
8
A-WALL
10
1042.0000
20
492.0000
30
0.0
11
1042.0000
21
512.0000
31
0.0
0
LINE
8
A-WALL
10
1042.0000
20
512.0000
30
0.0
11
1022.0000
21
512.0000
31
0.0
0
LINE
8
A-WALL
10
1042.0000
20
-470.0000
30
0.0
11
1077.0000
21
-470.0000
31
0.0
0
LINE
8
A-WALL
10
1077.0000
20
0.0000
30
0.0
11
1042.0000
21
0.0000
31
0.0
0
LINE
8
A-WALL
10
1077.0000
20
-470.0000
30
0.0
11
1086.0000
21
-470.0000
31
0.0
0
LINE
8
A-WALL
10
1086.0000
20
0.0000
30
0.0
11
1077.0000
21
0.0000
31
0.0
0
LINE
8
A-WALL
10
1086.0000
20
-470.0000
30
0.0
11
1097.0000
21
-470.0000
31
0.0
0
LINE
8
A-WALL
10
1097.0000
20
0.0000
30
0.0
11
1086.0000
21
0.0000
31
0.0
0
LINE
8
A-WALL
10
1097.0000
20
-470.0000
30
0.0
11
1236.0000
21
-470.0000
31
0.0
0
LINE
8
A-WALL
10
1236.0000
20
0.0000
30
0.0
11
1097.0000
21
0.0000
31
0.0
0
LINE
8
A-WALL
10
1236.0000
20
-470.0000
30
0.0
11
1251.0000
21
-470.0000
31
0.0
0
LINE
8
A-WALL
10
1251.0000
20
0.0000
30
0.0
11
1236.0000
21
0.0000
31
0.0
0
LINE
8
A-WALL
10
1251.0000
20
-470.0000
30
0.0
11
1271.0000
21
-470.0000
31
0.0
0
LINE
8
A-WALL
10
1271.0000
20
-470.0000
30
0.0
11
1271.0000
21
-450.0000
31
0.0
0
LINE
8
A-WALL
10
1271.0000
20
-450.0000
30
0.0
11
1271.0000
21
-385.0000
31
0.0
0
LINE
8
A-WALL
10
1271.0000
20
-385.0000
30
0.0
11
1271.0000
21
-365.0000
31
0.0
0
LINE
8
A-WALL
10
1271.0000
20
-365.0000
30
0.0
11
1271.0000
21
-355.0000
31
0.0
0
LINE
8
A-WALL
10
1271.0000
20
-355.0000
30
0.0
11
1271.0000
21
-335.0000
31
0.0
0
LINE
8
A-WALL
10
1271.0000
20
-335.0000
30
0.0
11
1271.0000
21
-330.0000
31
0.0
0
LINE
8
A-WALL
10
1271.0000
20
-330.0000
30
0.0
11
1271.0000
21
-255.0000
31
0.0
0
LINE
8
A-WALL
10
1271.0000
20
-255.0000
30
0.0
11
1271.0000
21
-250.0000
31
0.0
0
LINE
8
A-WALL
10
1271.0000
20
-250.0000
30
0.0
11
1271.0000
21
-230.0000
31
0.0
0
LINE
8
A-WALL
10
1271.0000
20
-230.0000
30
0.0
11
1271.0000
21
-180.0000
31
0.0
0
LINE
8
A-WALL
10
1271.0000
20
-180.0000
30
0.0
11
1271.0000
21
-150.0000
31
0.0
0
LINE
8
A-WALL
10
1271.0000
20
-150.0000
30
0.0
11
1271.0000
21
-130.0000
31
0.0
0
LINE
8
A-WALL
10
1271.0000
20
-130.0000
30
0.0
11
1271.0000
21
-105.0000
31
0.0
0
LINE
8
A-WALL
10
1271.0000
20
-105.0000
30
0.0
11
1271.0000
21
-100.0000
31
0.0
0
LINE
8
A-WALL
10
1271.0000
20
-100.0000
30
0.0
11
1271.0000
21
-85.0000
31
0.0
0
LINE
8
A-WALL
10
1271.0000
20
-85.0000
30
0.0
11
1271.0000
21
-20.0000
31
0.0
0
LINE
8
A-WALL
10
1271.0000
20
-20.0000
30
0.0
11
1271.0000
21
0.0000
31
0.0
0
LINE
8
A-WALL
10
1271.0000
20
0.0000
30
0.0
11
1251.0000
21
0.0000
31
0.0
0
POLYLINE
8
A-WALL
66
1
10
0.0000
20
0.0000
30
0.0
70
1
0
VERTEX
8
A-WALL
10
0.0000
20
0.0000
30
0.0
0
VERTEX
8
A-WALL
10
496.0000
20
0.0000
30
0.0
0
VERTEX
8
A-WALL
10
496.0000
20
492.0000
30
0.0
0
VERTEX
8
A-WALL
10
0.0000
20
492.0000
30
0.0
0
SEQEND
8
A-WALL
0
POLYLINE
8
A-WALL
66
1
10
0.0000
20
0.0000
30
0.0
70
1
0
VERTEX
8
A-WALL
10
518.0000
20
0.0000
30
0.0
0
VERTEX
8
A-WALL
10
1022.0000
20
0.0000
30
0.0
0
VERTEX
8
A-WALL
10
1022.0000
20
492.0000
30
0.0
0
VERTEX
8
A-WALL
10
518.0000
20
492.0000
30
0.0
0
SEQEND
8
A-WALL
0
POLYLINE
8
A-WALL
66
1
10
0.0000
20
0.0000
30
0.0
70
1
0
VERTEX
8
A-WALL
10
516.0000
20
-230.0000
30
0.0
0
VERTEX
8
A-WALL
10
726.0000
20
-230.0000
30
0.0
0
VERTEX
8
A-WALL
10
726.0000
20
-20.0000
30
0.0
0
VERTEX
8
A-WALL
10
516.0000
20
-20.0000
30
0.0
0
SEQEND
8
A-WALL
0
POLYLINE
8
A-WALL
66
1
10
0.0000
20
0.0000
30
0.0
70
1
0
VERTEX
8
A-WALL
10
746.0000
20
-230.0000
30
0.0
0
VERTEX
8
A-WALL
10
866.0000
20
-230.0000
30
0.0
0
VERTEX
8
A-WALL
10
866.0000
20
-20.0000
30
0.0
0
VERTEX
8
A-WALL
10
746.0000
20
-20.0000
30
0.0
0
SEQEND
8
A-WALL
0
POLYLINE
8
A-WALL
66
1
10
0.0000
20
0.0000
30
0.0
70
1
0
VERTEX
8
A-WALL
10
496.0000
20
-335.0000
30
0.0
0
VERTEX
8
A-WALL
10
866.0000
20
-335.0000
30
0.0
0
VERTEX
8
A-WALL
10
866.0000
20
-250.0000
30
0.0
0
VERTEX
8
A-WALL
10
496.0000
20
-250.0000
30
0.0
0
SEQEND
8
A-WALL
0
POLYLINE
8
A-WALL
66
1
10
0.0000
20
0.0000
30
0.0
70
1
0
VERTEX
8
A-WALL
10
396.0000
20
-335.0000
30
0.0
0
VERTEX
8
A-WALL
10
496.0000
20
-335.0000
30
0.0
0
VERTEX
8
A-WALL
10
496.0000
20
-150.0000
30
0.0
0
VERTEX
8
A-WALL
10
396.0000
20
-150.0000
30
0.0
0
SEQEND
8
A-WALL
0
POLYLINE
8
A-WALL
66
1
10
0.0000
20
0.0000
30
0.0
70
1
0
VERTEX
8
A-WALL
10
886.0000
20
-450.0000
30
0.0
0
VERTEX
8
A-WALL
10
1251.0000
20
-450.0000
30
0.0
0
VERTEX
8
A-WALL
10
1251.0000
20
-20.0000
30
0.0
0
VERTEX
8
A-WALL
10
886.0000
20
-20.0000
30
0.0
0
SEQEND
8
A-WALL
0
POLYLINE
8
A-WALL
66
1
10
0.0000
20
0.0000
30
0.0
70
1
0
VERTEX
8
A-WALL
10
1042.0000
20
-450.0000
30
0.0
0
VERTEX
8
A-WALL
10
1077.0000
20
-450.0000
30
0.0
0
VERTEX
8
A-WALL
10
1077.0000
20
-385.0000
30
0.0
0
VERTEX
8
A-WALL
10
1042.0000
20
-385.0000
30
0.0
0
SEQEND
8
A-WALL
0
POLYLINE
8
A-WALL
66
1
10
0.0000
20
0.0000
30
0.0
70
1
0
VERTEX
8
A-WALL
10
1042.0000
20
-85.0000
30
0.0
0
VERTEX
8
A-WALL
10
1077.0000
20
-85.0000
30
0.0
0
VERTEX
8
A-WALL
10
1077.0000
20
-20.0000
30
0.0
0
VERTEX
8
A-WALL
10
1042.0000
20
-20.0000
30
0.0
0
SEQEND
8
A-WALL
0
POLYLINE
8
A-GLAZ
66
1
10
0.0000
20
0.0000
30
0.0
70
1
0
VERTEX
8
A-GLAZ
10
93.0000
20
492.0000
30
0.0
0
VERTEX
8
A-GLAZ
10
205.0000
20
492.0000
30
0.0
0
VERTEX
8
A-GLAZ
10
205.0000
20
509.0000
30
0.0
0
VERTEX
8
A-GLAZ
10
93.0000
20
509.0000
30
0.0
0
SEQEND
8
A-GLAZ
0
LINE
8
A-GLAZ
10
93.0000
20
500.5000
30
0.0
11
205.0000
21
500.5000
31
0.0
0
POLYLINE
8
A-GLAZ
66
1
10
0.0000
20
0.0000
30
0.0
70
1
0
VERTEX
8
A-GLAZ
10
327.0000
20
492.0000
30
0.0
0
VERTEX
8
A-GLAZ
10
442.0000
20
492.0000
30
0.0
0
VERTEX
8
A-GLAZ
10
442.0000
20
509.0000
30
0.0
0
VERTEX
8
A-GLAZ
10
327.0000
20
509.0000
30
0.0
0
SEQEND
8
A-GLAZ
0
LINE
8
A-GLAZ
10
327.0000
20
500.5000
30
0.0
11
442.0000
21
500.5000
31
0.0
0
POLYLINE
8
A-GLAZ
66
1
10
0.0000
20
0.0000
30
0.0
70
1
0
VERTEX
8
A-GLAZ
10
620.0000
20
492.0000
30
0.0
0
VERTEX
8
A-GLAZ
10
737.0000
20
492.0000
30
0.0
0
VERTEX
8
A-GLAZ
10
737.0000
20
517.0000
30
0.0
0
VERTEX
8
A-GLAZ
10
620.0000
20
517.0000
30
0.0
0
SEQEND
8
A-GLAZ
0
LINE
8
A-GLAZ
10
620.0000
20
504.5000
30
0.0
11
737.0000
21
504.5000
31
0.0
0
POLYLINE
8
A-GLAZ
66
1
10
0.0000
20
0.0000
30
0.0
70
1
0
VERTEX
8
A-GLAZ
10
840.0000
20
492.0000
30
0.0
0
VERTEX
8
A-GLAZ
10
958.0000
20
492.0000
30
0.0
0
VERTEX
8
A-GLAZ
10
958.0000
20
513.0000
30
0.0
0
VERTEX
8
A-GLAZ
10
840.0000
20
513.0000
30
0.0
0
SEQEND
8
A-GLAZ
0
LINE
8
A-GLAZ
10
840.0000
20
502.5000
30
0.0
11
958.0000
21
502.5000
31
0.0
0
LINE
8
A-DOOR
10
518.0000
20
183.0000
30
0.0
11
512.0000
21
183.0000
31
0.0
0
LINE
8
A-DOOR
10
518.0000
20
311.0000
30
0.0
11
512.0000
21
311.0000
31
0.0
0
LINE
8
A-DOOR
10
518.0000
20
183.0000
30
0.0
11
390.0000
21
183.0000
31
0.0
0
ARC
8
A-DOOR
10
518.0000
20
183.0000
30
0.0
40
128.0000
50
90.0000
51
180.0000
0
LINE
8
A-DOOR
10
914.0000
20
0.0000
30
0.0
11
914.0000
21
-6.0000
31
0.0
0
LINE
8
A-DOOR
10
1022.0000
20
0.0000
30
0.0
11
1022.0000
21
-6.0000
31
0.0
0
LINE
8
A-DOOR
10
914.0000
20
0.0000
30
0.0
11
914.0000
21
108.0000
31
0.0
0
ARC
8
A-DOOR
10
914.0000
20
0.0000
30
0.0
40
108.0000
50
0.0000
51
90.0000
0
LINE
8
A-DOOR
10
896.0000
20
-450.0000
30
0.0
11
896.0000
21
-456.0000
31
0.0
0
LINE
8
A-DOOR
10
996.0000
20
-450.0000
30
0.0
11
996.0000
21
-456.0000
31
0.0
0
LINE
8
A-DOOR
10
896.0000
20
-450.0000
30
0.0
11
896.0000
21
-350.0000
31
0.0
0
ARC
8
A-DOOR
10
896.0000
20
-450.0000
30
0.0
40
100.0000
50
0.0000
51
90.0000
0
POLYLINE
8
A-GLAZ
66
1
10
0.0000
20
0.0000
30
0.0
70
1
0
VERTEX
8
A-GLAZ
10
1086.0000
20
-450.0000
30
0.0
0
VERTEX
8
A-GLAZ
10
1236.0000
20
-450.0000
30
0.0
0
VERTEX
8
A-GLAZ
10
1236.0000
20
-458.0000
30
0.0
0
VERTEX
8
A-GLAZ
10
1086.0000
20
-458.0000
30
0.0
0
SEQEND
8
A-GLAZ
0
LINE
8
A-GLAZ
10
1086.0000
20
-454.0000
30
0.0
11
1236.0000
21
-454.0000
31
0.0
0
LINE
8
A-DOOR
10
866.0000
20
-330.0000
30
0.0
11
872.0000
21
-330.0000
31
0.0
0
LINE
8
A-DOOR
10
866.0000
20
-255.0000
30
0.0
11
872.0000
21
-255.0000
31
0.0
0
LINE
8
A-DOOR
10
866.0000
20
-330.0000
30
0.0
11
791.0000
21
-330.0000
31
0.0
0
ARC
8
A-DOOR
10
866.0000
20
-330.0000
30
0.0
40
75.0000
50
90.0000
51
180.0000
0
LINE
8
A-DOOR
10
866.0000
20
-180.0000
30
0.0
11
872.0000
21
-180.0000
31
0.0
0
LINE
8
A-DOOR
10
866.0000
20
-100.0000
30
0.0
11
872.0000
21
-100.0000
31
0.0
0
LINE
8
A-DOOR
10
866.0000
20
-180.0000
30
0.0
11
786.0000
21
-180.0000
31
0.0
0
ARC
8
A-DOOR
10
866.0000
20
-180.0000
30
0.0
40
80.0000
50
90.0000
51
180.0000
0
POLYLINE
8
A-GLAZ
66
1
10
0.0000
20
0.0000
30
0.0
70
1
0
VERTEX
8
A-GLAZ
10
560.0000
20
-250.0000
30
0.0
0
VERTEX
8
A-GLAZ
10
660.0000
20
-250.0000
30
0.0
0
VERTEX
8
A-GLAZ
10
660.0000
20
-242.0000
30
0.0
0
VERTEX
8
A-GLAZ
10
560.0000
20
-242.0000
30
0.0
0
SEQEND
8
A-GLAZ
0
LINE
8
A-GLAZ
10
560.0000
20
-246.0000
30
0.0
11
660.0000
21
-246.0000
31
0.0
0
TEXT
8
A-AREA-IDEN
10
248.0000
20
256.0000
30
0.0
40
14.0000
1
ROOM A
50
0.0000
72
1
73
2
11
248.0000
21
256.0000
31
0.0
0
TEXT
8
A-AREA-IDEN
10
248.0000
20
234.0000
30
0.0
40
10.0000
1
24.40 m2
50
0.0000
72
1
73
2
11
248.0000
21
234.0000
31
0.0
0
TEXT
8
A-AREA-IDEN
10
770.0000
20
256.0000
30
0.0
40
14.0000
1
LIVING ROOM
50
0.0000
72
1
73
2
11
770.0000
21
256.0000
31
0.0
0
TEXT
8
A-AREA-IDEN
10
770.0000
20
234.0000
30
0.0
40
10.0000
1
24.80 m2
50
0.0000
72
1
73
2
11
770.0000
21
234.0000
31
0.0
0
TEXT
8
A-AREA-IDEN
10
621.0000
20
-125.0000
30
0.0
40
12.0000
1
Lichthof
50
0.0000
72
1
73
2
11
621.0000
21
-125.0000
31
0.0
0
TEXT
8
A-AREA-IDEN
10
806.0000
20
-115.0000
30
0.0
40
14.0000
1
WC
50
0.0000
72
1
73
2
11
806.0000
21
-115.0000
31
0.0
0
TEXT
8
A-AREA-IDEN
10
806.0000
20
-137.0000
30
0.0
40
10.0000
1
2.52 m2
50
0.0000
72
1
73
2
11
806.0000
21
-137.0000
31
0.0
0
TEXT
8
A-ANNO-NOTE
10
806.0000
20
-155.0000
30
0.0
40
8.0000
1
ESTIMATED
50
0.0000
72
1
73
2
11
806.0000
21
-155.0000
31
0.0
0
TEXT
8
A-AREA-IDEN
10
681.0000
20
-282.5000
30
0.0
40
14.0000
1
BATHROOM
50
0.0000
72
1
73
2
11
681.0000
21
-282.5000
31
0.0
0
TEXT
8
A-AREA-IDEN
10
681.0000
20
-304.5000
30
0.0
40
10.0000
1
5.00 m2
50
0.0000
72
1
73
2
11
681.0000
21
-304.5000
31
0.0
0
TEXT
8
A-ANNO-NOTE
10
681.0000
20
-322.5000
30
0.0
40
8.0000
1
ESTIMATED
50
0.0000
72
1
73
2
11
681.0000
21
-322.5000
31
0.0
0
TEXT
8
A-AREA-IDEN
10
1068.5000
20
-225.0000
30
0.0
40
14.0000
1
KITCHEN
50
0.0000
72
1
73
2
11
1068.5000
21
-225.0000
31
0.0
0
TEXT
8
A-AREA-IDEN
10
1068.5000
20
-247.0000
30
0.0
40
10.0000
1
15.24 m2
50
0.0000
72
1
73
2
11
1068.5000
21
-247.0000
31
0.0
0
TEXT
8
A-ANNO-NOTE
10
1068.5000
20
-265.0000
30
0.0
40
8.0000
1
ESTIMATED
50
0.0000
72
1
73
2
11
1068.5000
21
-265.0000
31
0.0
0
POLYLINE
8
M-HVAC
66
1
10
0.0000
20
0.0000
30
0.0
70
1
0
VERTEX
8
M-HVAC
10
55.0000
20
0.0000
30
0.0
0
VERTEX
8
M-HVAC
10
145.0000
20
0.0000
30
0.0
0
VERTEX
8
M-HVAC
10
145.0000
20
25.0000
30
0.0
0
VERTEX
8
M-HVAC
10
55.0000
20
25.0000
30
0.0
0
SEQEND
8
M-HVAC
0
TEXT
8
M-HVAC
10
100.0000
20
12.5000
30
0.0
40
8.0000
1
HVAC unit
50
0.0000
72
1
73
2
11
100.0000
21
12.5000
31
0.0
0
POLYLINE
8
M-HVAC
66
1
10
0.0000
20
0.0000
30
0.0
70
1
0
VERTEX
8
M-HVAC
10
718.0000
20
0.0000
30
0.0
0
VERTEX
8
M-HVAC
10
808.0000
20
0.0000
30
0.0
0
VERTEX
8
M-HVAC
10
808.0000
20
25.0000
30
0.0
0
VERTEX
8
M-HVAC
10
718.0000
20
25.0000
30
0.0
0
SEQEND
8
M-HVAC
0
TEXT
8
M-HVAC
10
763.0000
20
12.5000
30
0.0
40
8.0000
1
HVAC unit
50
0.0000
72
1
73
2
11
763.0000
21
12.5000
31
0.0
0
INSERT
8
E-POWR
2
POWER
10
404.0000
20
1.0000
30
0.0
50
0.0000
0
INSERT
8
E-POWR
2
POWER
10
1.0000
20
104.0000
30
0.0
50
90.0000
0
INSERT
8
E-LITE
2
SWITCH
10
495.0000
20
324.0000
30
0.0
50
270.0000
0
INSERT
8
E-POWR
2
POWER
10
1021.0000
20
204.0000
30
0.0
50
270.0000
0
INSERT
8
E-COMM
2
DATA
10
784.0000
20
491.0000
30
0.0
50
180.0000
0
INSERT
8
E-POWR
2
POWER
10
762.0000
20
491.0000
30
0.0
50
180.0000
0
INSERT
8
E-COMM
2
TV-POINT
10
1021.0000
20
236.0000
30
0.0
50
270.0000
0
INSERT
8
E-POWR
2
POWER
10
642.0000
20
1.0000
30
0.0
50
0.0000
0
INSERT
8
E-LITE
2
SWITCH
10
902.0000
20
1.0000
30
0.0
50
0.0000
0
INSERT
8
E-POWR
2
POWER-HIGH
10
1170.0000
20
-449.0000
30
0.0
50
0.0000
0
INSERT
8
E-POWR
2
POWER-HIGH
10
1250.0000
20
-196.0000
30
0.0
50
270.0000
0
INSERT
8
E-LITE
2
SWITCH
10
1054.0000
20
-84.0000
30
0.0
50
0.0000
0
INSERT
8
E-LITE
2
SWITCH
10
1065.0000
20
-84.0000
30
0.0
50
0.0000
0
INSERT
8
E-POWR
2
POWER
10
700.0000
20
-251.0000
30
0.0
50
180.0000
0
POLYLINE
8
E-POWR
66
1
10
0.0000
20
0.0000
30
0.0
70
1
0
VERTEX
8
E-POWR
10
1042.0000
20
-438.0000
30
0.0
0
VERTEX
8
E-POWR
10
1054.0000
20
-438.0000
30
0.0
0
VERTEX
8
E-POWR
10
1054.0000
20
-403.0000
30
0.0
0
VERTEX
8
E-POWR
10
1042.0000
20
-403.0000
30
0.0
0
SEQEND
8
E-POWR
0
TEXT
8
E-POWR
10
1048.0000
20
-420.5000
30
0.0
40
8.0000
1
Electrics
50
0.0000
72
1
73
2
11
1048.0000
21
-420.5000
31
0.0
0
POLYLINE
8
P-HTNG
66
1
10
0.0000
20
0.0000
30
0.0
70
1
0
VERTEX
8
P-HTNG
10
784.0000
20
-230.0000
30
0.0
0
VERTEX
8
P-HTNG
10
829.0000
20
-230.0000
30
0.0
0
VERTEX
8
P-HTNG
10
829.0000
20
-200.0000
30
0.0
0
VERTEX
8
P-HTNG
10
784.0000
20
-200.0000
30
0.0
0
SEQEND
8
P-HTNG
0
TEXT
8
P-HTNG
10
806.5000
20
-215.0000
30
0.0
40
8.0000
1
Boiler
50
0.0000
72
1
73
2
11
806.5000
21
-215.0000
31
0.0
0
INSERT
8
E-LITE
2
CEILING-LIGHT
10
248.0000
20
246.0000
30
0.0
50
0.0000
0
INSERT
8
E-LITE
2
CEILING-LIGHT
10
770.0000
20
246.0000
30
0.0
50
0.0000
0
INSERT
8
E-LITE
2
CEILING-LIGHT
10
1050.0000
20
-300.0000
30
0.0
50
0.0000
0
INSERT
8
E-LITE
2
CEILING-LIGHT
10
600.0000
20
-292.0000
30
0.0
50
0.0000
0
INSERT
8
E-LITE
2
CEILING-LIGHT
10
446.0000
20
-240.0000
30
0.0
50
0.0000
0
INSERT
8
E-LITE
2
CEILING-LIGHT
10
806.0000
20
-150.0000
30
0.0
50
0.0000
0
POLYLINE
8
A-WALL-FNSH
66
1
10
0.0000
20
0.0000
30
0.0
70
1
0
VERTEX
8
A-WALL-FNSH
10
1019.0000
20
70.0000
30
0.0
0
VERTEX
8
A-WALL-FNSH
10
1022.0000
20
70.0000
30
0.0
0
VERTEX
8
A-WALL-FNSH
10
1022.0000
20
464.0000
30
0.0
0
VERTEX
8
A-WALL-FNSH
10
1019.0000
20
464.0000
30
0.0
0
SEQEND
8
A-WALL-FNSH
0
TEXT
8
A-WALL-FNSH
10
1020.5000
20
267.0000
30
0.0
40
8.0000
1
Exposed brick
50
0.0000
72
1
73
2
11
1020.5000
21
267.0000
31
0.0
0
POLYLINE
8
A-FLOR-CASE
66
1
10
0.0000
20
0.0000
30
0.0
70
1
0
VERTEX
8
A-FLOR-CASE
10
1077.0000
20
-450.0000
30
0.0
0
VERTEX
8
A-FLOR-CASE
10
1251.0000
20
-450.0000
30
0.0
0
VERTEX
8
A-FLOR-CASE
10
1251.0000
20
-390.0000
30
0.0
0
VERTEX
8
A-FLOR-CASE
10
1077.0000
20
-390.0000
30
0.0
0
SEQEND
8
A-FLOR-CASE
0
TEXT
8
A-FLOR-CASE
10
1164.0000
20
-420.0000
30
0.0
40
8.0000
1
Counter
50
0.0000
72
1
73
2
11
1164.0000
21
-420.0000
31
0.0
0
POLYLINE
8
A-FLOR-CASE
66
1
10
0.0000
20
0.0000
30
0.0
70
1
0
VERTEX
8
A-FLOR-CASE
10
1251.0000
20
-390.0000
30
0.0
0
VERTEX
8
A-FLOR-CASE
10
1251.0000
20
-190.0000
30
0.0
0
VERTEX
8
A-FLOR-CASE
10
1191.0000
20
-190.0000
30
0.0
0
VERTEX
8
A-FLOR-CASE
10
1191.0000
20
-390.0000
30
0.0
0
SEQEND
8
A-FLOR-CASE
0
TEXT
8
A-FLOR-CASE
10
1221.0000
20
-290.0000
30
0.0
40
8.0000
1
Counter
50
0.0000
72
1
73
2
11
1221.0000
21
-290.0000
31
0.0
0
POLYLINE
8
P-SANR
66
1
10
0.0000
20
0.0000
30
0.0
70
1
0
VERTEX
8
P-SANR
10
1181.0000
20
-442.5000
30
0.0
0
VERTEX
8
P-SANR
10
1241.0000
20
-442.5000
30
0.0
0
VERTEX
8
P-SANR
10
1241.0000
20
-397.5000
30
0.0
0
VERTEX
8
P-SANR
10
1181.0000
20
-397.5000
30
0.0
0
SEQEND
8
P-SANR
0
TEXT
8
P-SANR
10
1211.0000
20
-420.0000
30
0.0
40
8.0000
1
Sink
50
0.0000
72
1
73
2
11
1211.0000
21
-420.0000
31
0.0
0
POLYLINE
8
A-FLOR-EQPM
66
1
10
0.0000
20
0.0000
30
0.0
70
1
0
VERTEX
8
A-FLOR-EQPM
10
1091.0000
20
-450.0000
30
0.0
0
VERTEX
8
A-FLOR-EQPM
10
1151.0000
20
-450.0000
30
0.0
0
VERTEX
8
A-FLOR-EQPM
10
1151.0000
20
-390.0000
30
0.0
0
VERTEX
8
A-FLOR-EQPM
10
1091.0000
20
-390.0000
30
0.0
0
SEQEND
8
A-FLOR-EQPM
0
TEXT
8
A-FLOR-EQPM
10
1121.0000
20
-420.0000
30
0.0
40
8.0000
1
Cooker
50
0.0000
72
1
73
2
11
1121.0000
21
-420.0000
31
0.0
0
POLYLINE
8
A-FLOR-EQPM
66
1
10
0.0000
20
0.0000
30
0.0
70
1
0
VERTEX
8
A-FLOR-EQPM
10
1077.0000
20
-85.0000
30
0.0
0
VERTEX
8
A-FLOR-EQPM
10
1137.0000
20
-85.0000
30
0.0
0
VERTEX
8
A-FLOR-EQPM
10
1137.0000
20
-20.0000
30
0.0
0
VERTEX
8
A-FLOR-EQPM
10
1077.0000
20
-20.0000
30
0.0
0
SEQEND
8
A-FLOR-EQPM
0
TEXT
8
A-FLOR-EQPM
10
1107.0000
20
-52.5000
30
0.0
40
8.0000
1
Fridge
50
0.0000
72
1
73
2
11
1107.0000
21
-52.5000
31
0.0
0
POLYLINE
8
P-SANR
66
1
10
0.0000
20
0.0000
30
0.0
70
1
0
VERTEX
8
P-SANR
10
401.0000
20
-245.0000
30
0.0
0
VERTEX
8
P-SANR
10
491.0000
20
-245.0000
30
0.0
0
VERTEX
8
P-SANR
10
491.0000
20
-155.0000
30
0.0
0
VERTEX
8
P-SANR
10
401.0000
20
-155.0000
30
0.0
0
SEQEND
8
P-SANR
0
TEXT
8
P-SANR
10
446.0000
20
-200.0000
30
0.0
40
8.0000
1
Shower
50
0.0000
72
1
73
2
11
446.0000
21
-200.0000
31
0.0
0
POLYLINE
8
P-SANR
66
1
10
0.0000
20
0.0000
30
0.0
70
1
0
VERTEX
8
P-SANR
10
672.5000
20
-312.5000
30
0.0
0
VERTEX
8
P-SANR
10
727.5000
20
-312.5000
30
0.0
0
VERTEX
8
P-SANR
10
727.5000
20
-267.5000
30
0.0
0
VERTEX
8
P-SANR
10
672.5000
20
-267.5000
30
0.0
0
SEQEND
8
P-SANR
0
TEXT
8
P-SANR
10
700.0000
20
-290.0000
30
0.0
40
8.0000
1
Basin
50
0.0000
72
1
73
2
11
700.0000
21
-290.0000
31
0.0
0
POLYLINE
8
P-SANR
66
1
10
0.0000
20
0.0000
30
0.0
70
1
0
VERTEX
8
P-SANR
10
786.0000
20
-229.5000
30
0.0
0
VERTEX
8
P-SANR
10
826.0000
20
-229.5000
30
0.0
0
VERTEX
8
P-SANR
10
826.0000
20
-164.5000
30
0.0
0
VERTEX
8
P-SANR
10
786.0000
20
-164.5000
30
0.0
0
SEQEND
8
P-SANR
0
TEXT
8
P-SANR
10
806.0000
20
-197.0000
30
0.0
40
8.0000
1
Toilet
50
0.0000
72
1
73
2
11
806.0000
21
-197.0000
31
0.0
0
POLYLINE
8
P-SANR
66
1
10
0.0000
20
0.0000
30
0.0
70
1
0
VERTEX
8
P-SANR
10
786.0000
20
-52.0000
30
0.0
0
VERTEX
8
P-SANR
10
826.0000
20
-52.0000
30
0.0
0
VERTEX
8
P-SANR
10
826.0000
20
-22.0000
30
0.0
0
VERTEX
8
P-SANR
10
786.0000
20
-22.0000
30
0.0
0
SEQEND
8
P-SANR
0
TEXT
8
P-SANR
10
806.0000
20
-37.0000
30
0.0
40
8.0000
1
Sink
50
0.0000
72
1
73
2
11
806.0000
21
-37.0000
31
0.0
0
ENDSEC
0
EOF
